HIERARCHY
ROOT Hips
{
	OFFSET 0.00000 0.00000 0.00000
	CHANNELS 6 Xposition Yposition Zposition Zrotation Yrotation Xrotation 
	JOINT LHipJoint
	{
		OFFSET 0 0 0
		CHANNELS 3 Zrotation Yrotation Xrotation
		JOINT LeftUpLeg
		{
			OFFSET 1.49846 -1.74315 1.08250
			CHANNELS 3 Zrotation Yrotation Xrotation
			JOINT LeftLeg
			{
				OFFSET 2.40966 -6.62050 0.00000
				CHANNELS 3 Zrotation Yrotation Xrotation
				JOINT LeftFoot
				{
					OFFSET 2.68066 -7.36505 0.00000
					CHANNELS 3 Zrotation Yrotation Xrotation
					JOINT LeftToeBase
					{
						OFFSET 0.14291 -0.39265 2.35870
						CHANNELS 3 Zrotation Yrotation Xrotation
						End Site
						{
							OFFSET 0.00000 -0.00000 1.20470
						}
					}
				}
			}
		}
	}
	JOINT RHipJoint
	{
		OFFSET 0 0 0
		CHANNELS 3 Zrotation Yrotation Xrotation
		JOINT RightUpLeg
		{
			OFFSET -1.46318 -1.74316 1.08250
			CHANNELS 3 Zrotation Yrotation Xrotation
			JOINT RightLeg
			{
				OFFSET -2.39759 -6.58734 0.00000
				CHANNELS 3 Zrotation Yrotation Xrotation
				JOINT RightFoot
				{
					OFFSET -2.63570 -7.24154 0.00000
					CHANNELS 3 Zrotation Yrotation Xrotation
					JOINT RightToeBase
					{
						OFFSET -0.17578 -0.48294 2.47180
						CHANNELS 3 Zrotation Yrotation Xrotation
						End Site
						{
							OFFSET -0.00000 -0.00000 1.26600
						}
					}
				}
			}
		}
	}
	JOINT LowerBack
	{
		OFFSET 0 0 0
		CHANNELS 3 Zrotation Yrotation Xrotation
		JOINT Spine
		{
			OFFSET 0.00843 2.19877 -0.20423
			CHANNELS 3 Zrotation Yrotation Xrotation
			JOINT Spine1
			{
				OFFSET -0.03080 2.21436 -0.05138
				CHANNELS 3 Zrotation Yrotation Xrotation
				JOINT Neck
				{
					OFFSET 0 0 0
					CHANNELS 3 Zrotation Yrotation Xrotation
					JOINT Neck1
					{
						OFFSET -0.04063 1.58841 0.30440
						CHANNELS 3 Zrotation Yrotation Xrotation
						JOINT Head
						{
							OFFSET 0.09277 1.59484 -0.39337
							CHANNELS 3 Zrotation Yrotation Xrotation
							End Site
							{
								OFFSET 0.03488 1.66530 -0.17040
							}
						}
					}
				}
				JOINT LeftShoulder
				{
					OFFSET 0 0 0
					CHANNELS 3 Zrotation Yrotation Xrotation
					JOINT LeftArm
					{
						OFFSET 3.03849 1.31522 0.02556
						CHANNELS 3 Zrotation Yrotation Xrotation
						JOINT LeftForeArm
						{
							OFFSET 5.25537 -0.00000 0.00000
							CHANNELS 3 Zrotation Yrotation Xrotation
							JOINT LeftHand
							{
								OFFSET 3.38855 -0.00000 -0.00000
								CHANNELS 3 Zrotation Yrotation Xrotation
								JOINT LeftFingerBase
								{
									OFFSET 0 0 0
									CHANNELS 3 Zrotation Yrotation Xrotation
									JOINT LeftHandIndex1
									{
										OFFSET 0.61452 -0.00000 0.00000
										CHANNELS 3 Zrotation Yrotation Xrotation
										End Site
										{
											OFFSET 0.49544 -0.00000 0.00000
										}
									}
								}
								JOINT LThumb
								{
									OFFSET 0 0 0
									CHANNELS 3 Zrotation Yrotation Xrotation
									End Site
									{
										OFFSET 0.50300 -0.00000 0.50300
									}
								}
							}
						}
					}
				}
				JOINT RightShoulder
				{
					OFFSET 0 0 0
					CHANNELS 3 Zrotation Yrotation Xrotation
					JOINT RightArm
					{
						OFFSET -3.06926 1.12091 -0.13185
						CHANNELS 3 Zrotation Yrotation Xrotation
						JOINT RightForeArm
						{
							OFFSET -5.38183 -0.00000 0.00000
							CHANNELS 3 Zrotation Yrotation Xrotation
							JOINT RightHand
							{
								OFFSET -3.16988 -0.00000 0.00000
								CHANNELS 3 Zrotation Yrotation Xrotation
								JOINT RightFingerBase
								{
									OFFSET 0 0 0
									CHANNELS 3 Zrotation Yrotation Xrotation
									JOINT RightHandIndex1
									{
										OFFSET -0.63768 -0.00000 0.00000
										CHANNELS 3 Zrotation Yrotation Xrotation
										End Site
										{
											OFFSET -0.51411 -0.00000 0.00000
										}
									}
								}
								JOINT RThumb
								{
									OFFSET 0 0 0
									CHANNELS 3 Zrotation Yrotation Xrotation
									End Site
									{
										OFFSET -0.52196 -0.00000 0.52196
									}
								}
							}
						}
					}
				}
			}
		}
	}
}
MOTION
Frames: 15
Frame Time: .0083333
2.7768 17.3688 -44.6838 0 0 0 0 0 0 -21 0 0 0 0 0 0 0 0 0 0 0 0 0 0 21 0 0 0 0 0 0 0 0 0 0 0 0 0 0 0 0 0 0 0 0 0 0 -16 0 0 21 0 0 11 0 0 0 -8 0 0 0 0 0 0 0 0 0 0 0 0 0 0 0 0 0 0 0 0 8 0 0 0 0 0 0 0 0 0 0 0 0 0 0 0 0 0
2.7768 17.3688 -44.6838 12.6631 4.5922 3.9508 0.0000 0.0000 0.0000 -30.9732 -20.6180 -0.9933 1.4884 7.7074 21.8287 -1.5376 21.4764 -11.1595 3.0814 -10.8256 -31.6941 0.0000 0.0000 0.0000 7.4225 24.1910 -5.8299 -4.0862 -12.2742 36.7089 -2.6652 -13.1335 -37.6435 -0.0766 1.7858 -4.9140 -11.0509 -1.6399 -0.2790 -5.6611 -1.8227 2.6671 0.2136 -1.0942 3.1221 -9.4919 -3.8733 -16.8786 15.3818 -6.6179 21.2013 6.2235 -2.1209 10.4347 0.0000 0.0000 0.0000 -9.3715 6.9166 4.7267 23.2292 -34.3385 -7.2671 -0.0000 -0.0000 11.6031 -6.9642 -9.7276 1.1824 -7.1250 0.0000 -0.0000 -23.6700 20.4222 15.2621 0.0000 0.0000 0.0000 10.0524 -5.7462 -9.5309 -25.1098 36.3160 -8.3548 0.0000 -0.0000 -177.2560 -40.5478 -9.6386 8.1518 7.1250 -0.0000 -0.0000 -12.2493 -42.2513 -0.8446
2.7707 17.3693 -44.6830 12.6746 4.6226 3.9898 0.0000 0.0000 0.0000 -30.9516 -20.6678 -1.0190 1.4896 7.7103 21.8376 -1.5331 21.4685 -11.3344 3.1779 -10.9776 -32.2045 0.0000 0.0000 0.0000 7.4184 24.1674 -5.8517 -4.0833 -12.2704 36.6953 -2.6759 -13.1438 -37.7040 -0.0788 1.8110 -4.9836 -11.0676 -1.8127 -0.3424 -5.6998 -2.0264 2.7966 0.1667 -1.2056 3.3124 -9.3450 -3.8652 -17.6397 15.4350 -6.6480 21.4811 6.2296 -2.0816 10.6883 0.0000 0.0000 0.0000 -9.2816 7.3583 4.4290 23.3086 -34.4245 -7.3120 -0.0000 -0.0000 11.3890 -7.3528 -9.7274 1.2490 -7.1250 0.0000 -0.0000 -23.9228 20.4152 15.4627 0.0000 0.0000 0.0000 10.1017 -4.9668 -9.6975 -25.1115 36.3177 -8.3558 0.0000 -0.0000 -177.0630 -40.5314 -9.6523 8.1584 7.1250 -0.0000 -0.0000 -12.2357 -42.2666 -0.8389
2.7656 17.3710 -44.6809 12.6914 4.5920 4.0092 0.0000 0.0000 0.0000 -30.9667 -20.7284 -0.9747 1.4868 7.7035 21.8171 -1.5452 21.5643 -11.5204 3.0847 -10.8310 -31.7119 0.0000 0.0000 0.0000 7.4187 24.2067 -5.8737 -4.0866 -12.2748 36.7112 -2.6849 -13.1499 -37.7533 -0.0730 1.7425 -4.7945 -11.0571 -1.8036 -0.2787 -5.6542 -2.0372 2.6973 0.2142 -1.2036 3.1730 -9.4701 -3.8800 -17.5832 15.4713 -6.6540 21.5436 6.2682 -2.0921 10.7064 -0.0000 -0.0000 0.0000 -9.3261 7.4809 4.6425 23.3764 -34.4978 -7.3504 -0.0000 -0.0000 11.3679 -7.5555 -9.6386 1.2722 -7.1250 0.0000 -0.0000 -24.0693 20.4929 15.5299 -0.0000 -0.0000 0.0000 9.9346 -4.8474 -9.4161 -25.2021 36.4099 -8.4096 0.0000 -0.0000 -177.0080 -40.5432 -9.6848 8.1887 7.1250 -0.0000 -0.0000 -12.2506 -42.3093 -0.8268
2.7624 17.3691 -44.6793 12.7186 4.6210 4.0402 0.0000 0.0000 0.0000 -30.9859 -20.8075 -0.9671 1.4848 7.6984 21.8017 -1.5644 21.6606 -11.3441 3.1213 -10.8889 -31.9063 0.0000 0.0000 0.0000 7.3919 24.1832 -5.9004 -4.0901 -12.2793 36.7274 -2.6943 -13.1368 -37.7913 -0.0737 1.7508 -4.8176 -11.0380 -1.6983 -0.4794 -5.6185 -1.8639 2.7184 0.2404 -1.1228 3.2947 -9.6462 -3.9788 -17.1764 15.5758 -6.7676 21.2966 6.3091 -2.1682 10.5647 0.0000 -0.0000 0.0000 -9.3778 7.1144 4.7199 23.3390 -34.4574 -7.3292 -0.0000 -0.0000 11.6455 -7.4010 -9.7354 1.2583 -7.1250 0.0000 -0.0000 -23.9527 20.4068 15.4911 0.0000 -0.0000 0.0000 9.8441 -5.1734 -9.2479 -25.3560 36.5656 -8.5011 0.0000 -0.0000 -177.0340 -40.5587 -9.6526 8.1664 7.1250 -0.0000 -0.0000 -12.2610 -42.2705 -0.8395
2.7591 17.3686 -44.6773 12.7369 4.6231 4.0618 0.0000 0.0000 0.0000 -31.0020 -20.8738 -0.9398 1.4820 7.6916 21.7813 -1.5779 21.7429 -11.3520 3.1161 -10.8807 -31.8785 0.0000 0.0000 0.0000 7.3807 24.1876 -5.9209 -4.0944 -12.2850 36.7478 -2.7047 -13.1262 -37.8358 -0.0726 1.7382 -4.7828 -11.0210 -1.6770 -0.5585 -5.5932 -1.8243 2.7167 0.2566 -1.1046 3.3346 -9.7247 -4.0166 -17.1049 15.6250 -6.8117 21.2555 6.3334 -2.1933 10.5475 -0.0000 0.0000 0.0000 -9.4163 7.0692 4.7417 23.3715 -34.4926 -7.3476 -0.0000 -0.0000 11.6774 -7.5700 -9.6874 1.2811 -7.1250 0.0000 -0.0000 -24.0705 20.4476 15.5583 -0.0000 0.0000 0.0000 9.7614 -5.1383 -9.1085 -25.4666 36.6771 -8.5671 0.0000 -0.0000 -176.9990 -40.5854 -9.6582 8.1787 7.1250 -0.0000 -0.0000 -12.2864 -42.2811 -0.8380
2.7565 17.3678 -44.6752 12.7499 4.6220 4.0775 0.0000 0.0000 0.0000 -31.0187 -20.9403 -0.9047 1.4791 7.6845 21.7597 -1.5924 21.8303 -11.3503 3.1058 -10.8643 -31.8237 0.0000 0.0000 0.0000 7.3752 24.1947 -5.9370 -4.0996 -12.2917 36.7719 -2.7149 -13.1124 -37.8774 -0.0716 1.7257 -4.7482 -10.9965 -1.6488 -0.6329 -5.5635 -1.7771 2.7097 0.2742 -1.0821 3.3652 -9.8029 -4.0492 -17.0061 15.6622 -6.8464 21.2074 6.3539 -2.2165 10.5204 -0.0000 0.0000 0.0000 -9.4711 7.0127 4.7598 23.4081 -34.5321 -7.3684 -0.0000 -0.0000 11.6946 -7.7589 -9.6147 1.3037 -7.1250 0.0000 -0.0000 -24.2052 20.5106 15.6254 -0.0000 0.0000 0.0000 9.6820 -5.1269 -8.9734 -25.5826 36.7935 -8.6364 0.0000 -0.0000 -176.9790 -40.6277 -9.6635 8.1951 7.1250 -0.0000 -0.0000 -12.3260 -42.2933 -0.8370
2.7545 17.3668 -44.6731 12.7609 4.6219 4.0894 0.0000 0.0000 0.0000 -31.0363 -21.0046 -0.8702 1.4769 7.6790 21.7432 -1.6056 21.9098 -11.3549 3.0996 -10.8546 -31.7910 0.0000 0.0000 0.0000 7.3703 24.1991 -5.9479 -4.1039 -12.2974 36.7923 -2.7245 -13.0984 -37.9160 -0.0709 1.7178 -4.7264 -10.9707 -1.6273 -0.6990 -5.5361 -1.7397 2.7075 0.2884 -1.0645 3.3969 -9.8604 -4.0757 -16.9448 15.6868 -6.8747 21.1765 6.3678 -2.2347 10.5047 0.0000 0.0000 0.0000 -9.5318 6.9763 4.7496 23.4480 -34.5751 -7.3910 -0.0000 -0.0000 11.6926 -7.9581 -9.5368 1.3268 -7.1250 0.0000 -0.0000 -24.3475 20.5777 15.6955 0.0000 0.0000 0.0000 9.6221 -5.0893 -8.8736 -25.6951 36.9061 -8.7039 0.0000 -0.0000 -176.9710 -40.6846 -9.6681 8.2152 7.1250 -0.0000 -0.0000 -12.3792 -42.3065 -0.8367
2.7530 17.3660 -44.6711 12.7684 4.6231 4.0979 0.0000 0.0000 0.0000 -31.0529 -21.0663 -0.8322 1.4748 7.6736 21.7270 -1.6174 21.9829 -11.3776 3.0970 -10.8504 -31.7770 0.0000 0.0000 0.0000 7.3689 24.2014 -5.9559 -4.1081 -12.3029 36.8121 -2.7339 -13.0844 -37.9529 -0.0701 1.7078 -4.6989 -10.9435 -1.6160 -0.7465 -5.5117 -1.7187 2.7064 0.2985 -1.0547 3.4206 -9.8852 -4.0957 -16.9332 15.6915 -6.8976 21.1710 6.3703 -2.2473 10.5051 0.0000 0.0000 0.0000 -9.5913 6.9776 4.7237 23.4919 -34.6224 -7.4159 -0.0000 -0.0000 11.6617 -8.1634 -9.4586 1.3504 -7.1250 0.0000 -0.0000 -24.4938 20.6449 15.7686 0.0000 0.0000 0.0000 9.5866 -5.0053 -8.8197 -25.7969 37.0075 -8.7651 0.0000 -0.0000 -176.9670 -40.7574 -9.6746 8.2414 7.1250 -0.0000 -0.0000 -12.4472 -42.3243 -0.8359
2.7519 17.3650 -44.6693 12.7796 4.6286 4.1041 0.0000 0.0000 0.0000 -31.0736 -21.1203 -0.7945 1.4723 7.6674 21.7085 -1.6325 22.0683 -11.3390 3.1734 -10.9705 -32.1805 0.0000 0.0000 0.0000 7.3628 24.1982 -5.9630 -4.1125 -12.3086 36.8325 -2.7432 -13.0709 -37.9899 -0.0690 1.6953 -4.6644 -10.9217 -1.6027 -0.7855 -5.4884 -1.6966 2.7024 0.3109 -1.0441 3.4364 -9.9162 -4.1236 -16.9159 15.6995 -6.9320 21.1691 6.3737 -2.2654 10.5078 0.0000 0.0000 0.0000 -9.6531 6.9790 4.7101 23.5308 -34.6641 -7.4380 -0.0000 -0.0000 11.6420 -8.3098 -9.4101 1.3680 -7.1250 0.0000 -0.0000 -24.5969 20.6859 15.8239 0.0000 0.0000 0.0000 9.5692 -4.9283 -8.7957 -25.8931 37.1029 -8.8231 0.0000 -0.0000 -176.9750 -40.8369 -9.6746 8.2643 7.1250 -0.0000 -0.0000 -12.5206 -42.3348 -0.8377
2.7510 17.3644 -44.6675 12.7926 4.6398 4.1114 0.0000 0.0000 0.0000 -31.0959 -21.1725 -0.7562 1.4694 7.6604 21.6871 -1.6496 22.1617 -11.2584 3.3117 -11.1834 -32.9008 0.0000 0.0000 0.0000 7.3539 24.1884 -5.9711 -4.1167 -12.3140 36.8521 -2.7526 -13.0576 -38.0277 -0.0681 1.6832 -4.6308 -10.9037 -1.5912 -0.8220 -5.4710 -1.6764 2.7030 0.3191 -1.0346 3.4558 -9.9164 -4.1548 -16.9182 15.6943 -6.9754 21.1718 6.3654 -2.2858 10.5159 0.0000 0.0000 0.0000 -9.7034 6.9792 4.6912 23.5581 -34.6934 -7.4535 -0.0000 -0.0000 11.6361 -8.4022 -9.3950 1.3812 -7.1250 0.0000 -0.0000 -24.6592 20.6975 15.8656 0.0000 0.0000 0.0000 9.5797 -4.8478 -8.8014 -25.9848 37.1937 -8.8785 0.0000 -0.0000 -177.0000 -40.9127 -9.6587 8.2728 7.1250 -0.0000 -0.0000 -12.5886 -42.3245 -0.8456
2.7505 17.3636 -44.6657 12.8112 4.6520 4.1186 0.0000 0.0000 0.0000 -31.1246 -21.2188 -0.7175 1.4661 7.6521 21.6622 -1.6693 22.2663 -11.1396 3.5006 -11.4644 -33.8625 0.0000 0.0000 0.0000 7.3372 24.1762 -5.9791 -4.1211 -12.3198 36.8730 -2.7626 -13.0405 -38.0659 -0.0669 1.6689 -4.5914 -10.8905 -1.5776 -0.8586 -5.4583 -1.6533 2.7036 0.3250 -1.0238 3.4751 -9.9151 -4.1926 -16.9196 15.6901 -7.0296 21.1765 6.3556 -2.3108 10.5261 -0.0000 -0.0000 0.0000 -9.7501 6.9697 4.6690 23.5782 -34.7150 -7.4650 -0.0000 -0.0000 11.6323 -8.4833 -9.3879 1.3937 -7.1250 0.0000 -0.0000 -24.7129 20.7019 15.9050 -0.0000 -0.0000 0.0000 9.6103 -4.7720 -8.8273 -26.0730 37.2807 -8.9319 0.0000 -0.0000 -177.0250 -40.9859 -9.6499 8.2865 7.1250 -0.0000 -0.0000 -12.6552 -42.3231 -0.8507
2.7503 17.3631 -44.6635 12.8323 4.6642 4.1256 0.0000 0.0000 0.0000 -31.1572 -21.2628 -0.6766 1.4626 7.6434 21.6361 -1.6850 22.3514 -11.0597 3.6381 -11.6626 -34.5485 0.0000 0.0000 0.0000 7.3167 24.1628 -5.9859 -4.1257 -12.3259 36.8948 -2.7734 -13.0195 -38.1050 -0.0656 1.6528 -4.5470 -10.8797 -1.5641 -0.9001 -5.4488 -1.6290 2.7063 0.3289 -1.0126 3.4992 -9.9189 -4.2335 -16.9258 15.6931 -7.0887 21.1850 6.3490 -2.3374 10.5400 -0.0000 -0.0000 0.0000 -9.7940 6.9598 4.6476 23.5956 -34.7337 -7.4749 -0.0000 -0.0000 11.6241 -8.5575 -9.3782 1.4046 -7.1250 0.0000 -0.0000 -24.7624 20.7089 15.9396 -0.0000 -0.0000 0.0000 9.6555 -4.7019 -8.8549 -26.1647 37.3709 -8.9874 0.0000 -0.0000 -177.0560 -41.0509 -9.6559 8.3103 7.1250 -0.0000 -0.0000 -12.7161 -42.3392 -0.8498
2.7505 17.3625 -44.6612 12.8573 4.6771 4.1330 0.0000 0.0000 0.0000 -31.1944 -21.3015 -0.6351 1.4586 7.6334 21.6060 -1.6921 22.3936 -11.0644 3.7249 -11.7850 -34.9755 0.0000 0.0000 0.0000 7.2903 24.1478 -5.9933 -4.1307 -12.3323 36.9179 -2.7836 -12.9945 -38.1388 -0.0646 1.6395 -4.5104 -10.8708 -1.5518 -0.9411 -5.4414 -1.6066 2.7070 0.3316 -1.0022 3.5212 -9.9284 -4.2726 -16.9372 15.6982 -7.1448 21.2012 6.3451 -2.3626 10.5576 0.0000 0.0000 0.0000 -9.8394 6.9409 4.6131 23.5960 -34.7341 -7.4751 -0.0000 -0.0000 11.6342 -8.6280 -9.3819 1.4169 -7.1250 0.0000 -0.0000 -24.8073 20.7037 15.9783 0.0000 0.0000 0.0000 9.7068 -4.6414 -8.8633 -26.2642 37.4684 -9.0479 0.0000 -0.0000 -177.0970 -41.0997 -9.6612 8.3288 7.1250 -0.0000 -0.0000 -12.7619 -42.3524 -0.8488
2.7511 17.3618 -44.6588 12.8795 4.6909 4.1400 0.0000 0.0000 0.0000 -31.2292 -21.3374 -0.5931 1.4544 7.6228 21.5742 -1.6900 22.3903 -11.1633 3.7307 -11.7932 -35.0042 0.0000 0.0000 0.0000 7.2653 24.1322 -6.0034 -4.1357 -12.3388 36.9413 -2.7901 -12.9653 -38.1513 -0.0641 1.6339 -4.4948 -10.8602 -1.5421 -0.9867 -5.4325 -1.5869 2.7080 0.3345 -0.9933 3.5463 -9.9452 -4.3070 -16.9497 15.7048 -7.1929 21.2214 6.3444 -2.3844 10.5759 0.0000 0.0000 0.0000 -9.8884 6.9272 4.5792 23.5914 -34.7291 -7.4725 -0.0000 -0.0000 11.6449 -8.6957 -9.3831 1.4284 -7.1250 0.0000 -0.0000 -24.8507 20.7008 16.0143 0.0000 0.0000 0.0000 9.7597 -4.5830 -8.8558 -26.3688 37.5706 -9.1116 0.0000 -0.0000 -177.1410 -41.1350 -9.6805 8.3553 7.1250 -0.0000 -0.0000 -12.7970 -42.3818 -0.8417
